<svg width="1024" height="1024" viewBox="0 0 1024 1024" fill="none" xmlns="http://www.w3.org/2000/svg">
<path d="M474.5 312C474.5 291.289 491.289 274.5 512 274.5C532.711 274.5 549.5 291.289 549.5 312V488.823L662.098 545.138C680.622 554.4 688.124 576.907 678.862 595.431C669.6 613.955 647.093 621.457 628.569 612.195L495.236 545.529C482.531 539.176 474.5 526.204 474.5 512V312Z" fill="white" fill-opacity="0.8"/>
<path d="M741.167 678.667V512C741.167 491.289 757.956 474.5 778.667 474.5C799.377 474.5 816.167 491.289 816.167 512V678.667C816.167 699.377 799.377 716.167 778.667 716.167C757.956 716.167 741.167 699.377 741.167 678.667Z" fill="white" fill-opacity="0.8"/>
<path d="M778.992 774.5C799.703 774.5 816.492 791.289 816.492 812C816.492 832.711 799.703 849.5 778.992 849.5H778.667C757.956 849.5 741.167 832.711 741.167 812C741.167 791.289 757.956 774.5 778.667 774.5H778.992Z" fill="white" fill-opacity="0.8"/>
<path d="M511.13 141.019C584.825 140.858 656.91 162.671 718.161 203.65C779.407 244.629 827.073 302.921 855.043 371.098C862.901 390.257 853.726 412.162 834.568 420.023C815.411 427.882 793.507 418.733 785.642 399.581C763.327 345.188 725.295 298.679 676.43 265.987C627.566 233.297 570.082 215.89 511.293 216.019C452.501 216.15 395.071 233.795 346.351 266.703C297.634 299.611 259.831 346.295 237.758 400.785C215.686 455.271 210.349 515.095 222.426 572.627C234.507 630.165 263.47 682.82 305.596 723.832C347.72 764.837 401.114 792.368 458.949 802.901C516.787 813.432 576.459 806.504 630.336 782.979C649.31 774.696 671.392 783.347 679.685 802.315C687.971 821.292 679.323 843.406 660.349 851.696C592.812 881.187 518.008 889.899 445.505 876.696C373 863.492 306.058 828.984 253.253 777.575C200.448 726.168 164.165 660.18 149.021 588.057C133.878 515.936 140.56 440.93 168.226 372.627C195.897 304.322 243.321 245.812 304.392 204.561C365.462 163.313 437.435 141.183 511.13 141.019Z" fill="white" fill-opacity="0.8"/>
</svg>
